<?xml version="1.0" standalone="no"?>
<!DOCTYPE svg PUBLIC "-//W3C//DTD SVG 20010904//EN"
 "http://www.w3.org/TR/2001/REC-SVG-20010904/DTD/svg10.dtd">
<svg version="1.0" xmlns="http://www.w3.org/2000/svg"
 width="72.000000pt" height="72.000000pt" viewBox="0 0 72.000000 72.000000"
 preserveAspectRatio="xMidYMid meet">
<metadata>
Created by potrace 1.14, written by Peter Selinger 2001-2017
</metadata>
<g transform="translate(0.000000,72.000000) scale(0.100000,-0.100000)"
fill="#000000" stroke="none">
<path d="M495 683 c-11 -3 -32 -14 -47 -25 -15 -10 -43 -20 -62 -22 -59 -4
-70 -19 -121 -176 -38 -115 -85 -176 -171 -220 -46 -24 -57 -55 -19 -55 61 -1
233 58 250 85 3 6 12 10 20 10 10 0 5 -17 -17 -61 -32 -63 -91 -117 -156 -145
-19 -8 -32 -19 -29 -26 10 -30 163 -6 259 41 139 67 222 213 193 338 -7 30 -5
33 21 38 16 4 35 8 42 11 16 5 15 51 -2 57 -20 8 -85 -9 -104 -26 -31 -28 -45
-25 -47 13 -1 19 -6 47 -10 62 -8 30 -1 36 45 40 17 2 27 11 31 28 3 14 4 28
2 33 -4 8 -46 8 -78 0z"/>
</g>
</svg>
